<svg xmlns="http://www.w3.org/2000/svg" viewBox="0 0 1200 800" preserveAspectRatio="xMidYMid slice" role="img" aria-label="Terrasse avant">
<defs>
  <filter id="grain" x="0" y="0" width="100%" height="100%">
    <feTurbulence type="fractalNoise" baseFrequency=".85" numOctaves="2" seed="4"/>
    <feColorMatrix values="0 0 0 0 0  0 0 0 0 0  0 0 0 0 0  0 0 0 .20 0"/>
  </filter>
  <filter id="blur"><feGaussianBlur stdDeviation="14"/></filter>
  <filter id="soft"><feGaussianBlur stdDeviation="3"/></filter>
  <linearGradient id="wallOld" x1="0" y1="0" x2="0" y2="1"><stop offset="0" stop-color="#bdb5a7"/><stop offset="1" stop-color="#9d9484"/></linearGradient>
  <linearGradient id="wallNew" x1="0" y1="0" x2="0" y2="1"><stop offset="0" stop-color="#f5f0e8"/><stop offset="1" stop-color="#e8e0d3"/></linearGradient>
  <linearGradient id="light" x1="0" y1="0" x2="1" y2="0"><stop offset="0" stop-color="#fff" stop-opacity=".35"/><stop offset="1" stop-color="#fff" stop-opacity="0"/></linearGradient>
  <linearGradient id="shade" x1="0" y1="0" x2="1" y2="0"><stop offset="0" stop-color="#000" stop-opacity="0"/><stop offset="1" stop-color="#000" stop-opacity=".22"/></linearGradient>
  <linearGradient id="sky" x1="0" y1="0" x2="0" y2="1"><stop offset="0" stop-color="#bfdcf0"/><stop offset="1" stop-color="#eaf4fb"/></linearGradient>
  <linearGradient id="skyOld" x1="0" y1="0" x2="0" y2="1"><stop offset="0" stop-color="#8f9ea3"/><stop offset="1" stop-color="#a9b1ab"/></linearGradient>
  <linearGradient id="oak" x1="0" y1="0" x2="0" y2="1"><stop offset="0" stop-color="#d6b389"/><stop offset="1" stop-color="#c29b6d"/></linearGradient>
  <linearGradient id="oakH" x1="0" y1="0" x2="1" y2="0"><stop offset="0" stop-color="#d2ad80"/><stop offset="1" stop-color="#c39d6f"/></linearGradient>
</defs>
<rect width="1200" height="800" fill="url(#wallOld)"/><rect width="1200" height="520" fill="#aaa291"/><rect x="300" y="110" width="600" height="410" fill="#4d4a42"/><rect x="318" y="128" width="564" height="374" fill="url(#skyOld)"/><rect x="596" y="128" width="8" height="374" fill="#4d4a42"/><polygon points="0,520 1200,520 1200,800 0,800" fill="#8b8a84"/><ellipse cx="1008" cy="716" rx="87" ry="22" fill="#5b5a52" opacity=".28" filter="url(#blur)"/><ellipse cx="343" cy="607" rx="40" ry="24" fill="#5b5a52" opacity=".28" filter="url(#blur)"/><ellipse cx="1089" cy="678" rx="50" ry="24" fill="#5b5a52" opacity=".28" filter="url(#blur)"/><ellipse cx="143" cy="746" rx="88" ry="19" fill="#5b5a52" opacity=".28" filter="url(#blur)"/><ellipse cx="985" cy="745" rx="94" ry="19" fill="#5b5a52" opacity=".28" filter="url(#blur)"/><ellipse cx="404" cy="620" rx="46" ry="17" fill="#5b5a52" opacity=".28" filter="url(#blur)"/><ellipse cx="331" cy="689" rx="48" ry="26" fill="#5b5a52" opacity=".28" filter="url(#blur)"/><ellipse cx="268" cy="634" rx="66" ry="21" fill="#5b5a52" opacity=".28" filter="url(#blur)"/><ellipse cx="923" cy="582" rx="74" ry="20" fill="#5b5a52" opacity=".28" filter="url(#blur)"/><path d="M120 800 L230 690 L210 640 L330 560" stroke="#3f3e38" stroke-width="3" fill="none"/><path d="M760 800 L820 720 L800 660 L900 600" stroke="#3f3e38" stroke-width="3" fill="none"/><line x1="0" y1="640" x2="1200" y2="640" stroke="#6b6a63" stroke-width="3"/><path d="M250 640 q-6 -26 -16 -36 M250 640 q4 -30 12 -40" stroke="#6b7a3a" stroke-width="3" fill="none"/><path d="M262 640 q-6 -26 -16 -36 M262 640 q4 -30 12 -40" stroke="#6b7a3a" stroke-width="3" fill="none"/><path d="M275 640 q-6 -26 -16 -36 M275 640 q4 -30 12 -40" stroke="#6b7a3a" stroke-width="3" fill="none"/><path d="M940 640 q-6 -26 -16 -36 M940 640 q4 -30 12 -40" stroke="#6b7a3a" stroke-width="3" fill="none"/><path d="M952 640 q-6 -26 -16 -36 M952 640 q4 -30 12 -40" stroke="#6b7a3a" stroke-width="3" fill="none"/><rect width="1200" height="800" filter="url(#grain)"/><rect width="1200" height="800" fill="#6f6a5c" opacity=".16"/><rect width="1200" height="800" fill="url(#shade)"/></svg>